<svg viewBox="0 0 514 318" fill="none" xmlns="http://www.w3.org/2000/svg">
<path d="M416.365 6.47626H107.84V253.712H416.365V6.47626Z" fill="#3D3D3D"/>
<path d="M351.517 71.722H172.688V195.894H351.517V71.722Z" fill="white"/>
<path d="M172.688 71.722L262.102 130.094L351.517 71.722H172.688Z" fill="#00C4F0"/>
<path d="M416.365 6.47626H107.84V26.8422H416.365V6.47626Z" fill="#00C4F0"/>
<path d="M406.032 21.7687C408.582 21.7687 410.65 19.481 410.65 16.659C410.65 13.8369 408.582 11.5492 406.032 11.5492C403.482 11.5492 401.414 13.8369 401.414 16.659C401.414 19.481 403.482 21.7687 406.032 21.7687Z" fill="white"/>
<path d="M328.93 215.723C347.404 215.723 362.381 199.151 362.381 178.708C362.381 158.265 347.404 141.692 328.93 141.692C310.455 141.692 295.478 158.265 295.478 178.708C295.478 199.151 310.455 215.723 328.93 215.723Z" fill="#00C4F0"/>
<path d="M323.194 198.643C322.56 198.643 321.95 198.375 321.489 197.893L308.782 184.627C308.303 184.126 308.023 183.436 308.004 182.707C307.985 181.978 308.228 181.271 308.68 180.741C309.132 180.211 309.756 179.901 310.415 179.88C311.074 179.859 311.713 180.128 312.192 180.628L323.056 191.972L345.533 164.565C345.975 164.025 346.594 163.702 347.252 163.667C347.91 163.631 348.553 163.887 349.041 164.377C349.529 164.866 349.821 165.551 349.853 166.279C349.885 167.007 349.654 167.719 349.212 168.259L325.033 197.742C324.811 198.012 324.542 198.231 324.243 198.386C323.944 198.54 323.62 198.627 323.29 198.641C323.257 198.642 323.226 198.643 323.194 198.643Z" fill="white"/>
<path d="M53.8505 105.569C53.8505 105.569 50.1313 99.0314 50.2833 97.2609C50.4353 95.4904 55.0844 93.6996 55.0844 93.6996C55.0844 93.6996 54.4118 92.1335 53.8123 90.4153C53.1208 88.4326 52.5262 86.246 53.1749 86.0283C53.8003 85.8178 54.7496 87.618 55.6189 89.7111C56.7361 92.3979 57.7222 95.5641 57.7222 95.5641C57.7222 95.5641 57.825 92.437 58.8702 92.636C59.2999 92.7179 59.4812 93.2829 59.4827 95.5245C59.4827 98.0788 59.8438 102.062 59.8438 102.062L53.8505 105.569Z" fill="#E98862"/>
<path d="M65.6583 134.878C64.5808 134.878 63.5278 134.523 62.6341 133.857C61.7403 133.191 61.0464 132.245 60.6411 131.141L50.9048 104.61L60.9391 100.103L63.8868 108.136L66.2007 95.3392L76.8217 97.6913L70.971 130.062C70.7426 131.325 70.1521 132.474 69.2871 133.336C68.4222 134.199 67.3288 134.731 66.1694 134.851C65.9982 134.87 65.8278 134.879 65.6583 134.878Z" fill="#08BAE1"/>
<path d="M48.082 113.369L54.1036 112.306C54.3403 112.264 54.5663 112.168 54.7668 112.022C54.9674 111.877 55.138 111.687 55.2674 111.464C55.3969 111.241 55.4823 110.99 55.5181 110.728C55.5539 110.466 55.5393 110.198 55.4752 109.942L51.6865 94.8962C51.5744 94.4505 51.3179 94.066 50.966 93.8162C50.6141 93.5664 50.1913 93.4687 49.7784 93.5418L43.7568 94.6049C43.5202 94.6467 43.2942 94.7433 43.0937 94.8884C42.8931 95.0336 42.7225 95.2239 42.593 95.447C42.4636 95.6702 42.3781 95.921 42.3423 96.1832C42.3065 96.4454 42.3212 96.713 42.3853 96.9685L46.174 112.015C46.2862 112.46 46.5427 112.845 46.8946 113.095C47.2465 113.344 47.6692 113.442 48.082 113.369Z" fill="#C1D8ED"/>
<path d="M102.641 248.649C93.6109 246.126 92.7223 245.749 92.4302 245.626L96.1618 234.847C96.1324 234.834 96.0942 234.818 96.0475 234.801C96.7817 235.069 101.368 236.389 105.196 237.459L102.641 248.649Z" fill="#E98862"/>
<path d="M102.235 263.727C102.144 264.021 102 264.291 101.811 264.52C101.622 264.749 101.392 264.933 101.136 265.06C100.88 265.187 100.603 265.253 100.322 265.256C100.042 265.259 99.7638 265.198 99.5055 265.077C99.1477 264.909 98.8407 264.631 98.6207 264.276C98.4007 263.921 98.2768 263.504 98.2637 263.074L98.2706 248.905C98.2717 248.631 98.3263 248.36 98.4306 248.111C98.5349 247.863 98.6866 247.642 98.8752 247.464C100.504 246.121 101.701 244.235 102.289 242.083C102.685 240.384 102.643 238.596 102.166 236.923C102.114 236.772 102.102 236.608 102.131 236.45C102.16 236.292 102.229 236.147 102.331 236.031C102.432 235.915 102.561 235.833 102.702 235.795C102.844 235.757 102.992 235.764 103.13 235.816L108.76 237.905C108.925 237.966 109.079 238.064 109.211 238.191C109.343 238.319 109.45 238.474 109.528 238.647C109.606 238.821 109.652 239.01 109.663 239.203C109.675 239.396 109.652 239.59 109.596 239.774L102.235 263.727Z" fill="#C1D8ED"/>
<path d="M77.922 313.2C77.922 313.2 77.8872 301.246 77.8872 300.187H88.319C88.319 301.243 88.3537 313.162 88.3537 313.162L77.922 313.2Z" fill="#E98862"/>
<path d="M105.255 147.68C98.5618 140.273 67.4638 150.263 67.4638 150.263L67.4355 150.478L66.7987 150.082C58.8889 167.673 47.6882 194.001 39.9389 211.933C39.3469 213.166 38.9901 214.52 38.8909 215.912C38.7916 217.304 38.9519 218.703 39.3618 220.024C39.7717 221.344 40.4224 222.557 41.2737 223.588C42.125 224.618 43.1586 225.444 44.3103 226.014L78.1638 242.681C76.4252 263.81 74.4292 284.922 72.7676 306.017L91.0058 308.536C94.3201 283.368 97.7283 258.23 100.771 233.031L101.268 231.796L100.941 231.635C102.807 216.11 104.954 200.604 106.005 184.967C106.897 171.67 108.856 151.664 105.255 147.68ZM61.2604 212.101C67.7872 200.064 75.4675 185.878 82.1125 173.837C81.7717 189.647 80.9248 205.446 79.812 221.235L61.2604 212.101Z" fill="#262626"/>
<path d="M57.7791 109.426L54.2279 114.758C54.2279 114.758 44.6823 112.64 43.7872 104.503C43.6838 103.566 43.7733 100.974 44.8219 101.322C47.554 102.228 50.9538 106.867 53.3382 107.484C52.7942 106.406 52.1306 104.884 52.5583 104.606C53.6844 103.873 56.7116 108.291 57.7791 109.426Z" fill="#E98862"/>
<path d="M93.6481 90.5021C93.6481 90.5021 89.6532 88.6036 89.6532 76.9906L81.6233 76.0853C81.6233 76.0853 83.2784 86.3472 79.52 89.992L93.6481 90.5021Z" fill="#E98862"/>
<g opacity="0.15">
<path opacity="0.15" d="M80.9805 87.6845L87.1402 81.5281L81.974 81.9371C81.969 83.9046 81.6321 85.8538 80.9805 87.6845Z" fill="black"/>
</g>
<path d="M93.8095 72.1106C93.5213 75.6599 92.041 79.1305 89.3347 80.5146C86.3926 82.1261 83.1388 82.9164 79.8572 82.8166C71.1403 82.8166 71.2386 60.8747 75.0358 56.2701C78.8329 51.6655 91.0972 53.2508 93.0892 60.1953C94.1194 63.7875 94.0847 68.7318 93.8095 72.1106Z" fill="#E98862"/>
<path d="M81.1646 70.5407C81.5621 70.5407 81.8844 70.1841 81.8844 69.7442C81.8844 69.3044 81.5621 68.9478 81.1646 68.9478C80.7671 68.9478 80.4448 69.3044 80.4448 69.7442C80.4448 70.1841 80.7671 70.5407 81.1646 70.5407Z" fill="#0F1011"/>
<path d="M75.4669 70.5407C75.8644 70.5407 76.1866 70.1841 76.1866 69.7442C76.1866 69.3044 75.8644 68.9478 75.4669 68.9478C75.0693 68.9478 74.7471 69.3044 74.7471 69.7442C74.7471 70.1841 75.0693 70.5407 75.4669 70.5407Z" fill="#0F1011"/>
<path d="M74.0705 68.1667C73.9826 68.1685 73.8975 68.1322 73.8333 68.0657C73.7692 67.9991 73.731 67.9075 73.7269 67.8103C73.7229 67.7131 73.7532 67.618 73.8115 67.5451C73.8698 67.4723 73.9515 67.4275 74.0392 67.4202L75.9378 67.2213C76.0268 67.2131 76.1152 67.2439 76.184 67.3069C76.2528 67.37 76.2966 67.4604 76.3059 67.5588C76.3101 67.6077 76.3056 67.6571 76.2925 67.7041C76.2795 67.7511 76.2582 67.7948 76.2299 67.8327C76.2015 67.8706 76.1667 67.902 76.1274 67.9249C76.0881 67.9479 76.0451 67.9621 76.0009 67.9666L74.1028 68.1651L74.0705 68.1667Z" fill="#0F1011"/>
<path d="M82.5788 68.1667C82.5622 68.1667 82.5456 68.1652 82.5292 68.1623L80.6187 67.8325C80.5746 67.8252 80.5322 67.8084 80.494 67.783C80.4558 67.7575 80.4225 67.724 80.396 67.6843C80.3696 67.6445 80.3505 67.5994 80.3398 67.5515C80.3292 67.5036 80.3272 67.4538 80.334 67.4051C80.3409 67.3563 80.3563 67.3095 80.3795 67.2674C80.4027 67.2252 80.4332 67.1886 80.4693 67.1596C80.5054 67.1305 80.5462 67.1097 80.5896 67.0982C80.633 67.0867 80.678 67.0848 80.722 67.0926L82.633 67.4224C82.7164 67.4375 82.7917 67.4867 82.8441 67.5601C82.8964 67.6336 82.922 67.7261 82.9158 67.8194C82.9095 67.9127 82.8719 68.0001 82.8104 68.0643C82.7489 68.1284 82.6678 68.1648 82.5833 68.1661L82.5788 68.1667Z" fill="#0F1011"/>
<path d="M81.2956 76.0265C81.2956 76.0265 78.6707 76.5761 76.7612 76.0265C76.7612 76.0265 76.9187 77.9547 79.0284 77.9547C81.1381 77.9547 81.2956 76.0265 81.2956 76.0265Z" fill="white"/>
<path d="M87.3114 63.5714C87.7396 79.6076 89.8449 81.0758 89.8449 81.0758C89.8449 81.0758 96.7 75.6236 96.93 65.9493C97.1466 56.8797 90.7668 52.1157 86.6473 51.4813C70.9952 49.0727 70.4458 64.7114 70.4458 64.7114C78.3009 66.2016 89.0004 63.7396 89.0004 63.7396" fill="#0F1011"/>
<path d="M85.0403 71.3476C85.0351 71.7947 85.1103 72.2384 85.2613 72.653C85.4123 73.0676 85.6362 73.445 85.9201 73.7631C86.2039 74.0812 86.5421 74.3338 86.9148 74.5062C87.2876 74.6786 87.6876 74.7674 88.0916 74.7674C88.4956 74.7674 88.8956 74.6786 89.2683 74.5062C89.6411 74.3338 89.9792 74.0812 90.2631 73.7631C90.5469 73.445 90.7708 73.0676 90.9219 72.653C91.0729 72.2384 91.148 71.7947 91.1429 71.3476C91.1497 70.9022 91.0755 70.4598 90.9246 70.0467C90.7737 69.6337 90.5492 69.2585 90.2645 68.9435C89.9798 68.6285 89.6407 68.3801 89.2675 68.2131C88.8942 68.0461 88.4944 67.964 88.0918 67.9716C85.9185 68.0903 85.0403 69.4837 85.0403 71.3476Z" fill="#E98862"/>
<path d="M105.786 92.6805C103.516 90.1685 99.5969 88.5469 94.8182 88.5414C94.4605 91.6251 77.5412 91.6361 77.412 88.6129C76.7663 88.6239 76.2645 88.6349 75.9516 88.6514C64.4682 89.201 64.502 99.4404 65.6316 110.759L56.1824 106.147L51.811 117.113L66.8491 124.453C66.8591 124.783 66.866 125.112 66.87 125.442C67.0637 143.285 62.7072 146.649 64.8537 152.101C66.9346 157.395 107.832 159.593 108.378 150.282C108.726 144.356 104.007 139.184 104.007 127.635C104.007 116.087 113.61 101.338 105.786 92.6805Z" fill="#00C4F0"/>
<path d="M77.4121 88.6129C77.5413 91.6361 79.0265 96.083 83.6115 96.4183C89.7216 96.8635 94.4606 91.6251 94.8182 88.5414H94.8033C88.7877 88.5414 80.9207 88.5524 77.4121 88.6129Z" fill="#E98862"/>
<g opacity="0.15">
<path opacity="0.15" d="M78.2881 74.4374C78.2701 74.4373 78.2521 74.4351 78.2345 74.4308L76.4641 74.0004C76.4297 73.992 76.3973 73.9757 76.3691 73.9524C76.3408 73.9291 76.3174 73.8995 76.3003 73.8655C76.2832 73.8314 76.2729 73.7938 76.2699 73.7549C76.267 73.7161 76.2715 73.6771 76.2832 73.6403L77.2112 70.7397C77.2347 70.6733 77.2806 70.6196 77.3393 70.59C77.3979 70.5604 77.4647 70.5571 77.5254 70.581C77.5862 70.6048 77.6362 70.6539 77.6649 70.7177C77.6935 70.7816 77.6987 70.8553 77.6791 70.9233L76.8451 73.5304L78.3413 73.8943C78.4009 73.909 78.4535 73.9475 78.4891 74.0025C78.5247 74.0574 78.5407 74.1249 78.5341 74.1921C78.5276 74.2593 78.4988 74.3215 78.4535 74.3667C78.4081 74.412 78.3492 74.4371 78.2881 74.4374Z" fill="black"/>
</g>
<path d="M65.2526 317.897C64.9721 317.896 64.6948 317.83 64.4382 317.705C64.1815 317.58 63.951 317.397 63.761 317.169C63.5709 316.94 63.4255 316.671 63.3338 316.378C63.2421 316.084 63.206 315.773 63.2279 315.464C63.2581 315.035 63.3985 314.624 63.6325 314.281C63.8665 313.937 64.1844 313.674 64.5487 313.524L76.6903 309.024C76.9256 308.938 77.1749 308.909 77.4213 308.939C77.6676 308.969 77.9051 309.058 78.1175 309.2C79.7866 310.481 81.7831 311.136 83.8137 311.069C85.3955 310.944 86.9139 310.33 88.1955 309.297C88.3082 309.195 88.4448 309.13 88.5893 309.111C88.7339 309.091 88.8805 309.118 89.012 309.187C89.1435 309.256 89.2546 309.365 89.3323 309.501C89.41 309.638 89.4511 309.795 89.4508 309.957V316.526C89.4508 316.72 89.4162 316.912 89.349 317.091C89.2818 317.27 89.1834 317.432 89.0593 317.569C88.9351 317.706 88.7878 317.814 88.6258 317.888C88.4638 317.962 88.2902 317.999 88.1151 317.998L65.2526 317.897Z" fill="#C1D8ED"/>
</svg>
